<?xml version="1.0" encoding="iso-8859-1"?>
<!-- Generator: Adobe Illustrator 19.0.0, SVG Export Plug-In . SVG Version: 6.00 Build 0)  -->
<svg version="1.1" id="Layer_1" xmlns="http://www.w3.org/2000/svg" xmlns:xlink="http://www.w3.org/1999/xlink" x="0px" y="0px"
	 viewBox="0 0 512.001 512.001" style="enable-background:new 0 0 512.001 512.001;" xml:space="preserve">
<rect x="15.557" y="98.316" style="fill:#FFFFFF;" width="404.088" height="337.694"/>
<path style="fill:#CCCCCC;" d="M415.643,102.314v329.693H19.557V102.314L415.643,102.314 M423.644,94.314H11.556v345.693h412.086
	V94.314H423.644z"/>
<rect x="45.446" y="141.938" style="fill:#FFFFFF;" width="344.314" height="264.176"/>
<path style="fill:#CCCCCC;" d="M385.755,145.938v256.18H49.445v-256.18H385.755 M393.755,137.938H41.445v272.18h352.31V137.938z"/>
<rect x="11.556" y="35.5" style="fill:#E21B1B;" width="412.088" height="79.423"/>
<g>
	<rect x="84.59" style="fill:#1A1718;" width="24" height="71.457"/>
	<rect x="326.61" style="fill:#1A1718;" width="24" height="71.457"/>
</g>
<path style="fill:#333333;" d="M359.018,229.164c-78.103,0.004-141.415,63.323-141.411,141.427s63.323,141.415,141.427,141.411
	c78.097-0.004,141.406-63.314,141.411-141.411c0.004-78.103-63.308-141.422-141.411-141.427
	C359.029,229.164,359.024,229.164,359.018,229.164z"/>
<g>
	<rect x="287.02" y="358.592" style="fill:#FFFFFF;" width="144.003" height="24"/>
	<rect x="347.015" y="298.587" style="fill:#FFFFFF;" width="24" height="144.003"/>
</g>
<g>
</g>
<g>
</g>
<g>
</g>
<g>
</g>
<g>
</g>
<g>
</g>
<g>
</g>
<g>
</g>
<g>
</g>
<g>
</g>
<g>
</g>
<g>
</g>
<g>
</g>
<g>
</g>
<g>
</g>
</svg>
