<?xml version="1.0" encoding="iso-8859-1"?>
<!-- Generator: Adobe Illustrator 19.0.0, SVG Export Plug-In . SVG Version: 6.00 Build 0)  -->
<svg version="1.1" id="Layer_1" xmlns="http://www.w3.org/2000/svg" xmlns:xlink="http://www.w3.org/1999/xlink" x="0px" y="0px"
	 viewBox="0 0 511.986 511.986" style="enable-background:new 0 0 511.986 511.986;" xml:space="preserve">
<path style="fill:#EAC6BB;" d="M372.849,23.592C242.931-43.281,43.327,36.717,82.17,204.134L62.702,227.68l-34.406,62.983
	l33.468,26.608l-1.383,44.733l13.367,19.171c0,0-15.929,59.843,8.421,68.343c45.413,15.843,98.896,8.046,98.896,8.046l2.656,54.422
	h225.924c0,0-22.359-112.826,11.593-160.762C455.191,303.287,565.939,123.011,372.849,23.592z"/>
<g style="opacity:0.2;">
	<path style="fill:#FFFFFF;" d="M372.849,23.592C338.585,5.951,299.461-1.47,261.141,0.248c31.304,1.391,62.444,8.969,90.365,23.343
		c193.104,99.419,82.357,279.695,48.405,327.633c-33.953,47.936-11.594,160.762-11.594,160.762h21.328
		c0,0-22.359-112.826,11.593-160.762C455.191,303.287,565.939,123.011,372.849,23.592z"/>
</g>
<path style="fill:#DBADA2;" d="M372.849,23.592C252.096-38.563,71.139,26.154,77.405,170.026
	c8.882,8.219,21.117,17.812,37.241,27.078c23.015,13.233,49.405,23.17,78.451,29.561c35.983,7.922,76.169,10.375,119.473,7.297
	c91.389-6.469,131.699,20.641,152.277,37.843C494.94,196.448,504.315,91.278,372.849,23.592z"/>
<path style="fill:#DA4453;" d="M387.256,236.93l-1.906-9.609h29.234l-28.781-43.186l27-11.188l-43.125-28.875l20.688-20.671
	l-50.905-10.187l11.203-27l-50.921,10.062V67.044l-43.186,28.781L245.369,68.81l-28.882,43.125l-20.671-20.672l-10.18,50.889
	l-27.015-11.187l10.07,50.921h-29.234l24.609,36.92c9.352,3.031,19.031,5.656,29.031,7.859
	c35.983,7.922,76.169,10.375,119.473,7.297C342.616,231.836,367.131,233.336,387.256,236.93z"/>
<path style="fill:#ED5564;" d="M398.334,237.993h36.187l-32.64-48.967l33.421-13.844l-48.89-32.75l25.578-25.592l-57.702-11.532
	l13.843-33.437l-57.717,11.422V47.107l-48.976,32.64l-13.843-33.421l-32.749,48.89l-25.585-25.578l-11.539,57.702l-33.429-13.844
	l11.422,57.717h-36.187l27.687,41.53c10.445,4.141,21.398,7.733,32.796,10.749l-10.093-15.14l-10.531-15.796h22.289l-5.039-25.484
	l-3.68-18.625l20.593,8.531l5.093-25.452l3.719-18.624l15.765,15.765l14.445-21.577l10.57-15.781l8.531,20.594l21.601-14.406
	l15.796-10.531v22.297l25.484-5.047l18.625-3.672l-8.531,20.593l25.452,5.094l18.624,3.719l-15.765,15.765l21.577,14.438
	l15.781,10.562l-20.594,8.531l14.406,21.608l10.531,15.797h-22.297l3.672,18.562c8.141,1.047,15.641,2.422,22.547,4.047
	L398.334,237.993z"/>
<g>
</g>
<g>
</g>
<g>
</g>
<g>
</g>
<g>
</g>
<g>
</g>
<g>
</g>
<g>
</g>
<g>
</g>
<g>
</g>
<g>
</g>
<g>
</g>
<g>
</g>
<g>
</g>
<g>
</g>
</svg>
