<?xml version="1.0" encoding="iso-8859-1"?>
<!-- Generator: Adobe Illustrator 19.0.0, SVG Export Plug-In . SVG Version: 6.00 Build 0)  -->
<svg version="1.1" id="Layer_1" xmlns="http://www.w3.org/2000/svg" xmlns:xlink="http://www.w3.org/1999/xlink" x="0px" y="0px"
	 viewBox="0 0 512 512" style="enable-background:new 0 0 512 512;" xml:space="preserve">
<path style="fill:#F4B2B0;" d="M310.481,157.604c0-5.767,0.547-11.404,1.539-16.885H13.246v43.978l196.797,165.457l138.819-116.712
	C325.59,216.305,310.481,188.724,310.481,157.604z"/>
<g>
	<path style="fill:#B3404A;" d="M349.849,249.921c16.048,9.557,34.773,15.068,54.77,15.068c59.21,0,107.381-48.172,107.381-107.383
		S463.828,50.223,404.619,50.223c-48.75,0-89.99,32.667-103.05,77.251H13.246C5.93,127.474,0,133.404,0,140.72v3.629v40.347V444.9
		v0.128v3.502c0,7.316,5.93,13.246,13.246,13.246h393.595c7.315,0,13.246-5.93,13.246-13.246v-3.629V311.778
		c0-7.316-5.932-13.246-13.246-13.246s-13.246,5.93-13.246,13.246v104.679L272.68,314.798L349.849,249.921z M404.619,76.714
		c44.603,0,80.889,36.287,80.889,80.89s-36.287,80.89-80.889,80.89c-20.636,0-39.483-7.778-53.789-20.544
		c-0.238-0.213-0.483-0.421-0.721-0.637c-0.665-0.608-1.311-1.235-1.955-1.865c-0.425-0.417-0.85-0.835-1.266-1.261
		c-0.525-0.534-1.04-1.076-1.548-1.624c-0.595-0.644-1.179-1.299-1.751-1.962c-0.327-0.376-0.658-0.747-0.978-1.129
		c-8.988-10.779-15.086-23.76-17.594-37.59c-0.008-0.045-0.016-0.089-0.024-0.134c-0.249-1.392-0.454-2.794-0.631-4.2
		c-0.028-0.225-0.06-0.448-0.086-0.673c-0.147-1.256-0.253-2.518-0.34-3.784c-0.021-0.305-0.053-0.607-0.069-0.913
		c-0.087-1.519-0.138-3.044-0.138-4.574c0-1.266,0.038-2.525,0.095-3.777c0.041-0.86,0.109-1.723,0.179-2.588
		c0.027-0.344,0.048-0.69,0.079-1.033c0.101-1.072,0.224-2.146,0.367-3.222c0.016-0.122,0.03-0.244,0.046-0.366
		c0.152-1.106,0.33-2.212,0.526-3.318C331.796,105.501,364.897,76.714,404.619,76.714z M297.234,157.604
		c0,1.787,0.046,3.569,0.135,5.345c1.139,23.124,9.646,44.331,23.19,61.362c0.356,0.45,0.702,0.91,1.066,1.355
		c0.385,0.469,0.791,0.922,1.184,1.384c1.809,2.139,3.681,4.23,5.661,6.227l-118.429,99.569L26.493,178.528v-24.561h270.805
		C297.257,155.183,297.234,156.396,297.234,157.604z M26.493,213.141L147.407,314.8L26.493,416.457V213.141z M374.82,435.284H45.268
		l122.722-103.18l33.529,28.19c2.464,2.072,5.493,3.108,8.524,3.108c3.031,0,6.06-1.036,8.524-3.108l33.529-28.19L374.82,435.284z"
		/>
	<path style="fill:#B3404A;" d="M366.867,170.851h24.506v24.506c0,7.316,5.932,13.246,13.246,13.246s13.246-5.93,13.246-13.246
		v-24.506h24.506c7.315,0,13.246-5.93,13.246-13.246c0-7.316-5.932-13.246-13.246-13.246h-24.506v-24.506
		c0-7.316-5.932-13.246-13.246-13.246s-13.246,5.93-13.246,13.246v24.506h-24.506c-7.315,0-13.246,5.93-13.246,13.246
		C353.62,164.92,359.551,170.851,366.867,170.851z"/>
</g>
<g>
</g>
<g>
</g>
<g>
</g>
<g>
</g>
<g>
</g>
<g>
</g>
<g>
</g>
<g>
</g>
<g>
</g>
<g>
</g>
<g>
</g>
<g>
</g>
<g>
</g>
<g>
</g>
<g>
</g>
</svg>
