<?xml version="1.0" encoding="iso-8859-1"?>
<!-- Generator: Adobe Illustrator 19.0.0, SVG Export Plug-In . SVG Version: 6.00 Build 0)  -->
<svg version="1.1" id="Layer_1" xmlns="http://www.w3.org/2000/svg" xmlns:xlink="http://www.w3.org/1999/xlink" x="0px" y="0px"
	 viewBox="0 0 511.998 511.998" style="enable-background:new 0 0 511.998 511.998;" xml:space="preserve">
<polygon style="fill:#FFFFFF;" points="310.56,90.662 201.442,90.662 120.295,186.756 120.295,499.528 391.705,499.528 
	391.705,186.756 "/>
<rect x="156.575" y="12.47" style="fill:#80D0E1;" width="198.856" height="78.195"/>
<rect x="120.295" y="247.605" style="fill:#FF7876;" width="271.415" height="167.315"/>
<path style="fill:#58595B;" d="M401.232,178.711l-63.822-75.578h18.015c6.888,0,12.47-5.583,12.47-12.47V12.47
	c0-6.888-5.582-12.47-12.47-12.47H156.576c-6.888,0-12.47,5.582-12.47,12.47v78.192c0,6.887,5.582,12.47,12.47,12.47h18.013
	l-63.822,75.578c-1.9,2.251-2.943,5.099-2.943,8.046c0,14.625,0,302.44,0,312.772c0,6.887,5.583,12.47,12.47,12.47h271.408
	c6.888,0,12.47-5.583,12.47-12.47c0-16.572,0-300.944,0-312.772C404.175,183.812,403.132,180.962,401.232,178.711z M169.046,24.94
	h173.909v53.252c-33.501,0-136.068,0-173.909,0V24.94z M207.235,103.132h97.532l74.468,88.185v43.813H132.767v-43.813
	L207.235,103.132z M379.235,402.438H132.767V260.07h246.468L379.235,402.438L379.235,402.438z M132.767,487.06v-59.682h246.468
	v59.682H132.767z"/>
<path style="fill:#FFFFFF;" d="M272.3,372.397v-20.118c0-2.609,2.115-4.724,4.725-4.724h20.118c2.609,0,4.724-2.115,4.724-4.724
	V319.68c0-2.609-2.115-4.724-4.724-4.724h-20.118c-2.609,0-4.725-2.115-4.725-4.724v-20.118c0-2.609-2.115-4.724-4.724-4.724
	h-23.151c-2.609,0-4.724,2.115-4.724,4.724v20.118c0,2.609-2.115,4.724-4.724,4.724H214.86c-2.609,0-4.724,2.115-4.724,4.724v23.151
	c0,2.609,2.115,4.724,4.724,4.724h20.118c2.609,0,4.724,2.115,4.724,4.724v20.118c0,2.609,2.115,4.724,4.724,4.724h23.151
	C270.185,377.121,272.3,375.006,272.3,372.397z"/>
<g>
</g>
<g>
</g>
<g>
</g>
<g>
</g>
<g>
</g>
<g>
</g>
<g>
</g>
<g>
</g>
<g>
</g>
<g>
</g>
<g>
</g>
<g>
</g>
<g>
</g>
<g>
</g>
<g>
</g>
</svg>
