<?xml version="1.0" encoding="iso-8859-1"?>
<!-- Generator: Adobe Illustrator 19.0.0, SVG Export Plug-In . SVG Version: 6.00 Build 0)  -->
<svg version="1.1" id="Layer_1" xmlns="http://www.w3.org/2000/svg" xmlns:xlink="http://www.w3.org/1999/xlink" x="0px" y="0px"
	 viewBox="0 0 512 512" style="enable-background:new 0 0 512 512;" xml:space="preserve">
<g transform="translate(1 1)">
	<path style="fill:#FFDD09;" d="M220.867,348.867c-2.56,0-5.12-0.853-6.827-3.413l-42.667-51.2
		c-3.413-3.413-2.56-9.387,0.853-11.947c3.413-3.413,9.387-2.56,11.947,0.853l42.667,51.2c3.413,3.413,2.56,9.387-0.853,11.947
		C225.133,348.013,222.573,348.867,220.867,348.867z"/>
	<path d="M212.333,348.867c-2.56,0-5.12-0.853-6.827-3.413l-42.667-51.2c-3.413-3.413-2.56-9.387,0.853-11.947
		c3.413-3.413,9.387-2.56,11.947,0.853l42.667,51.2c3.413,3.413,2.56,9.387-0.853,11.947
		C216.6,348.013,214.04,348.867,212.333,348.867z"/>
	<g>
		<path style="fill:#1CD759;" d="M280.6,357.4c0,18.773-15.36,34.133-34.133,34.133s-34.133-15.36-34.133-34.133
			s15.36-34.133,34.133-34.133S280.6,338.627,280.6,357.4"/>
		<path style="fill:#1CD759;" d="M502.467,314.733c0,18.773-15.36,34.133-34.133,34.133c-18.773,0-34.133-15.36-34.133-34.133
			c0-18.773,15.36-34.133,34.133-34.133C487.107,280.6,502.467,295.96,502.467,314.733"/>
	</g>
	<g>
		<path style="fill:#FFDD09;" d="M33.133,493.933c-0.853,0-2.56,0-3.413-0.853c-4.267-1.707-5.973-6.827-4.267-11.093
			l85.333-196.267c1.707-4.267,6.827-5.973,11.093-4.267c4.267,1.707,5.973,6.827,4.267,11.093L40.813,488.813
			C39.96,492.227,36.547,493.933,33.133,493.933z"/>
		<path style="fill:#FFDD09;" d="M280.6,340.333c-0.853,0-2.56,0-3.413-0.853c-4.267-1.707-5.973-6.827-4.267-11.093l59.733-128
			c1.707-4.267,6.827-5.973,11.093-4.267c4.267,1.707,5.973,6.827,4.267,11.093l-59.733,128
			C286.573,338.627,284.013,340.333,280.6,340.333z"/>
	</g>
	<g>
		<path style="fill:#54C9FD;" d="M169.667,263.533c0,18.773-15.36,34.133-34.133,34.133s-34.133-15.36-34.133-34.133
			s15.36-34.133,34.133-34.133S169.667,244.76,169.667,263.533"/>
		<path style="fill:#54C9FD;" d="M391.533,178.2c0,18.773-15.36,34.133-34.133,34.133s-34.133-15.36-34.133-34.133
			s15.36-34.133,34.133-34.133S391.533,159.427,391.533,178.2"/>
	</g>
	<g>
		<path style="fill:#FFDD09;" d="M451.267,289.133c-2.56,0-5.12-0.853-6.827-3.413l-59.733-76.8
			c-2.56-3.413-2.56-9.387,1.707-11.947c3.413-2.56,9.387-2.56,11.947,1.707l59.733,76.8c2.56,3.413,2.56,9.387-1.707,11.947
			C454.68,288.28,452.973,289.133,451.267,289.133z"/>
		<path style="fill:#FFDD09;" d="M33.133,485.4c-5.12,0-8.533-3.413-8.533-8.533V7.533C24.6,2.413,28.013-1,33.133-1
			s8.533,3.413,8.533,8.533v469.333C41.667,481.987,38.253,485.4,33.133,485.4z"/>
		<path style="fill:#FFDD09;" d="M502.467,485.4H33.133c-5.12,0-8.533-3.413-8.533-8.533c0-5.12,3.413-8.533,8.533-8.533h469.333
			c5.12,0,8.533,3.413,8.533,8.533C511,481.987,507.587,485.4,502.467,485.4z"/>
		<path style="fill:#FFDD09;" d="M50.2,33.133H16.067c-5.12,0-8.533-3.413-8.533-8.533s3.413-8.533,8.533-8.533H50.2
			c5.12,0,8.533,3.413,8.533,8.533S55.32,33.133,50.2,33.133z"/>
		<path style="fill:#FFDD09;" d="M50.2,75.8H16.067c-5.12,0-8.533-3.413-8.533-8.533s3.413-8.533,8.533-8.533H50.2
			c5.12,0,8.533,3.413,8.533,8.533S55.32,75.8,50.2,75.8z"/>
		<path style="fill:#FFDD09;" d="M50.2,118.467H16.067c-5.12,0-8.533-3.413-8.533-8.533s3.413-8.533,8.533-8.533H50.2
			c5.12,0,8.533,3.413,8.533,8.533S55.32,118.467,50.2,118.467z"/>
		<path style="fill:#FFDD09;" d="M50.2,161.133H16.067c-5.12,0-8.533-3.413-8.533-8.533c0-5.12,3.413-8.533,8.533-8.533H50.2
			c5.12,0,8.533,3.413,8.533,8.533C58.733,157.72,55.32,161.133,50.2,161.133z"/>
		<path style="fill:#FFDD09;" d="M50.2,203.8H16.067c-5.12,0-8.533-3.413-8.533-8.533c0-5.12,3.413-8.533,8.533-8.533H50.2
			c5.12,0,8.533,3.413,8.533,8.533C58.733,200.387,55.32,203.8,50.2,203.8z"/>
		<path style="fill:#FFDD09;" d="M50.2,246.467H16.067c-5.12,0-8.533-3.413-8.533-8.533c0-5.12,3.413-8.533,8.533-8.533H50.2
			c5.12,0,8.533,3.413,8.533,8.533C58.733,243.053,55.32,246.467,50.2,246.467z"/>
		<path style="fill:#FFDD09;" d="M50.2,289.133H16.067c-5.12,0-8.533-3.413-8.533-8.533c0-5.12,3.413-8.533,8.533-8.533H50.2
			c5.12,0,8.533,3.413,8.533,8.533S55.32,289.133,50.2,289.133z"/>
		<path style="fill:#FFDD09;" d="M50.2,331.8H16.067c-5.12,0-8.533-3.413-8.533-8.533c0-5.12,3.413-8.533,8.533-8.533H50.2
			c5.12,0,8.533,3.413,8.533,8.533C58.733,328.387,55.32,331.8,50.2,331.8z"/>
		<path style="fill:#FFDD09;" d="M50.2,374.467H16.067c-5.12,0-8.533-3.413-8.533-8.533s3.413-8.533,8.533-8.533H50.2
			c5.12,0,8.533,3.413,8.533,8.533S55.32,374.467,50.2,374.467z"/>
		<path style="fill:#FFDD09;" d="M33.133,417.133H16.067c-5.12,0-8.533-3.413-8.533-8.533c0-5.12,3.413-8.533,8.533-8.533h17.067
			c5.12,0,8.533,3.413,8.533,8.533C41.667,413.72,38.253,417.133,33.133,417.133z"/>
		<path style="fill:#FFDD09;" d="M33.133,459.8H16.067c-5.12,0-8.533-3.413-8.533-8.533s3.413-8.533,8.533-8.533h17.067
			c5.12,0,8.533,3.413,8.533,8.533S38.253,459.8,33.133,459.8z"/>
		<path style="fill:#FFDD09;" d="M67.267,502.467c-5.12,0-8.533-3.413-8.533-8.533V459.8c0-5.12,3.413-8.533,8.533-8.533
			S75.8,454.68,75.8,459.8v34.133C75.8,499.053,72.387,502.467,67.267,502.467z"/>
		<path style="fill:#FFDD09;" d="M109.933,502.467c-5.12,0-8.533-3.413-8.533-8.533V459.8c0-5.12,3.413-8.533,8.533-8.533
			s8.533,3.413,8.533,8.533v34.133C118.467,499.053,115.053,502.467,109.933,502.467z"/>
		<path style="fill:#FFDD09;" d="M152.6,502.467c-5.12,0-8.533-3.413-8.533-8.533V459.8c0-5.12,3.413-8.533,8.533-8.533
			c5.12,0,8.533,3.413,8.533,8.533v34.133C161.133,499.053,157.72,502.467,152.6,502.467z"/>
		<path style="fill:#FFDD09;" d="M195.267,502.467c-5.12,0-8.533-3.413-8.533-8.533V459.8c0-5.12,3.413-8.533,8.533-8.533
			c5.12,0,8.533,3.413,8.533,8.533v34.133C203.8,499.053,200.387,502.467,195.267,502.467z"/>
		<path style="fill:#FFDD09;" d="M237.933,502.467c-5.12,0-8.533-3.413-8.533-8.533V459.8c0-5.12,3.413-8.533,8.533-8.533
			c5.12,0,8.533,3.413,8.533,8.533v34.133C246.467,499.053,243.053,502.467,237.933,502.467z"/>
		<path style="fill:#FFDD09;" d="M280.6,502.467c-5.12,0-8.533-3.413-8.533-8.533V459.8c0-5.12,3.413-8.533,8.533-8.533
			s8.533,3.413,8.533,8.533v34.133C289.133,499.053,285.72,502.467,280.6,502.467z"/>
		<path style="fill:#FFDD09;" d="M323.267,502.467c-5.12,0-8.533-3.413-8.533-8.533V459.8c0-5.12,3.413-8.533,8.533-8.533
			c5.12,0,8.533,3.413,8.533,8.533v34.133C331.8,499.053,328.387,502.467,323.267,502.467z"/>
		<path style="fill:#FFDD09;" d="M365.933,502.467c-5.12,0-8.533-3.413-8.533-8.533V459.8c0-5.12,3.413-8.533,8.533-8.533
			s8.533,3.413,8.533,8.533v34.133C374.467,499.053,371.053,502.467,365.933,502.467z"/>
		<path style="fill:#FFDD09;" d="M408.6,502.467c-5.12,0-8.533-3.413-8.533-8.533V459.8c0-5.12,3.413-8.533,8.533-8.533
			c5.12,0,8.533,3.413,8.533,8.533v34.133C417.133,499.053,413.72,502.467,408.6,502.467z"/>
		<path style="fill:#FFDD09;" d="M451.267,502.467c-5.12,0-8.533-3.413-8.533-8.533V459.8c0-5.12,3.413-8.533,8.533-8.533
			s8.533,3.413,8.533,8.533v34.133C459.8,499.053,456.387,502.467,451.267,502.467z"/>
		<path style="fill:#FFDD09;" d="M493.933,502.467c-5.12,0-8.533-3.413-8.533-8.533V459.8c0-5.12,3.413-8.533,8.533-8.533
			c5.12,0,8.533,3.413,8.533,8.533v34.133C502.467,499.053,499.053,502.467,493.933,502.467z"/>
	</g>
	<path d="M24.6,493.933c-5.12,0-8.533-3.413-8.533-8.533V7.533C16.067,2.413,19.48-1,24.6-1s8.533,3.413,8.533,8.533V485.4
		C33.133,490.52,29.72,493.933,24.6,493.933z"/>
	<path d="M502.467,493.933H24.6c-5.12,0-8.533-3.413-8.533-8.533s3.413-8.533,8.533-8.533h477.867c5.12,0,8.533,3.413,8.533,8.533
		S507.587,493.933,502.467,493.933z"/>
	<path d="M24.6,493.933c-0.853,0-2.56,0-3.413-0.853c-4.267-1.707-5.973-6.827-4.267-11.093l85.333-196.267
		c1.707-4.267,6.827-5.973,11.093-4.267c4.267,1.707,5.973,6.827,4.267,11.093L32.28,488.813
		C31.427,492.227,28.013,493.933,24.6,493.933z"/>
	<path d="M272.067,340.333c-0.853,0-2.56,0-3.413-0.853c-4.267-1.707-5.973-6.827-4.267-11.093l59.733-128
		c1.707-4.267,6.827-5.973,11.093-4.267c4.267,1.707,5.973,6.827,4.267,11.093l-59.733,128
		C278.04,338.627,275.48,340.333,272.067,340.333z"/>
	<path d="M135.533,306.2c-23.893,0-42.667-18.773-42.667-42.667c0-23.893,18.773-42.667,42.667-42.667S178.2,239.64,178.2,263.533
		C178.2,287.427,159.427,306.2,135.533,306.2z M135.533,237.933c-14.507,0-25.6,11.093-25.6,25.6c0,14.507,11.093,25.6,25.6,25.6
		s25.6-11.093,25.6-25.6C161.133,249.027,150.04,237.933,135.533,237.933z"/>
	<path d="M246.467,400.067c-23.893,0-42.667-18.773-42.667-42.667c0-23.893,18.773-42.667,42.667-42.667
		s42.667,18.773,42.667,42.667C289.133,381.293,270.36,400.067,246.467,400.067z M246.467,331.8c-14.507,0-25.6,11.093-25.6,25.6
		s11.093,25.6,25.6,25.6c14.507,0,25.6-11.093,25.6-25.6S260.973,331.8,246.467,331.8z"/>
	<path d="M357.4,220.867c-23.893,0-42.667-18.773-42.667-42.667s18.773-42.667,42.667-42.667c23.893,0,42.667,18.773,42.667,42.667
		S381.293,220.867,357.4,220.867z M357.4,152.6c-14.507,0-25.6,11.093-25.6,25.6c0,14.507,11.093,25.6,25.6,25.6
		s25.6-11.093,25.6-25.6C383,163.693,371.907,152.6,357.4,152.6z"/>
	<path d="M468.333,357.4c-23.893,0-42.667-18.773-42.667-42.667c0-23.893,18.773-42.667,42.667-42.667
		c23.893,0,42.667,18.773,42.667,42.667C511,338.627,492.227,357.4,468.333,357.4z M468.333,289.133
		c-14.507,0-25.6,11.093-25.6,25.6c0,14.507,11.093,25.6,25.6,25.6c14.507,0,25.6-11.093,25.6-25.6
		C493.933,300.227,482.84,289.133,468.333,289.133z"/>
	<path d="M442.733,289.133c-2.56,0-5.12-0.853-6.827-3.413l-59.733-76.8c-2.56-3.413-2.56-9.387,1.707-11.947
		c3.413-2.56,9.387-2.56,11.947,1.707l59.733,76.8c2.56,3.413,2.56,9.387-1.707,11.947
		C446.147,288.28,444.44,289.133,442.733,289.133z"/>
	<path d="M41.667,41.667H7.533C2.413,41.667-1,38.253-1,33.133S2.413,24.6,7.533,24.6h34.133c5.12,0,8.533,3.413,8.533,8.533
		S46.787,41.667,41.667,41.667z"/>
	<path d="M41.667,84.333H7.533C2.413,84.333-1,80.92-1,75.8s3.413-8.533,8.533-8.533h34.133c5.12,0,8.533,3.413,8.533,8.533
		C50.2,80.92,46.787,84.333,41.667,84.333z"/>
	<path d="M41.667,127H7.533C2.413,127-1,123.587-1,118.467s3.413-8.533,8.533-8.533h34.133c5.12,0,8.533,3.413,8.533,8.533
		S46.787,127,41.667,127z"/>
	<path d="M41.667,169.667H7.533c-5.12,0-8.533-3.413-8.533-8.533c0-5.12,3.413-8.533,8.533-8.533h34.133
		c5.12,0,8.533,3.413,8.533,8.533C50.2,166.253,46.787,169.667,41.667,169.667z"/>
	<path d="M41.667,212.333H7.533C2.413,212.333-1,208.92-1,203.8c0-5.12,3.413-8.533,8.533-8.533h34.133
		c5.12,0,8.533,3.413,8.533,8.533C50.2,208.92,46.787,212.333,41.667,212.333z"/>
	<path d="M41.667,255H7.533C2.413,255-1,251.587-1,246.467c0-5.12,3.413-8.533,8.533-8.533h34.133c5.12,0,8.533,3.413,8.533,8.533
		C50.2,251.587,46.787,255,41.667,255z"/>
	<path d="M41.667,297.667H7.533c-5.12,0-8.533-3.413-8.533-8.533c0-5.12,3.413-8.533,8.533-8.533h34.133
		c5.12,0,8.533,3.413,8.533,8.533C50.2,294.253,46.787,297.667,41.667,297.667z"/>
	<path d="M41.667,340.333H7.533C2.413,340.333-1,336.92-1,331.8s3.413-8.533,8.533-8.533h34.133c5.12,0,8.533,3.413,8.533,8.533
		S46.787,340.333,41.667,340.333z"/>
	<path d="M41.667,383H7.533C2.413,383-1,379.587-1,374.467c0-5.12,3.413-8.533,8.533-8.533h34.133c5.12,0,8.533,3.413,8.533,8.533
		C50.2,379.587,46.787,383,41.667,383z"/>
	<path d="M24.6,425.667H7.533c-5.12,0-8.533-3.413-8.533-8.533s3.413-8.533,8.533-8.533H24.6c5.12,0,8.533,3.413,8.533,8.533
		S29.72,425.667,24.6,425.667z"/>
	<path d="M24.6,468.333H7.533C2.413,468.333-1,464.92-1,459.8s3.413-8.533,8.533-8.533H24.6c5.12,0,8.533,3.413,8.533,8.533
		S29.72,468.333,24.6,468.333z"/>
	<path d="M58.733,511c-5.12,0-8.533-3.413-8.533-8.533v-34.133c0-5.12,3.413-8.533,8.533-8.533s8.533,3.413,8.533,8.533v34.133
		C67.267,507.587,63.853,511,58.733,511z"/>
	<path d="M101.4,511c-5.12,0-8.533-3.413-8.533-8.533v-34.133c0-5.12,3.413-8.533,8.533-8.533c5.12,0,8.533,3.413,8.533,8.533
		v34.133C109.933,507.587,106.52,511,101.4,511z"/>
	<path d="M144.067,511c-5.12,0-8.533-3.413-8.533-8.533v-34.133c0-5.12,3.413-8.533,8.533-8.533c5.12,0,8.533,3.413,8.533,8.533
		v34.133C152.6,507.587,149.187,511,144.067,511z"/>
	<path d="M186.733,511c-5.12,0-8.533-3.413-8.533-8.533v-34.133c0-5.12,3.413-8.533,8.533-8.533c5.12,0,8.533,3.413,8.533,8.533
		v34.133C195.267,507.587,191.853,511,186.733,511z"/>
	<path d="M229.4,511c-5.12,0-8.533-3.413-8.533-8.533v-34.133c0-5.12,3.413-8.533,8.533-8.533c5.12,0,8.533,3.413,8.533,8.533
		v34.133C237.933,507.587,234.52,511,229.4,511z"/>
	<path d="M272.067,511c-5.12,0-8.533-3.413-8.533-8.533v-34.133c0-5.12,3.413-8.533,8.533-8.533s8.533,3.413,8.533,8.533v34.133
		C280.6,507.587,277.187,511,272.067,511z"/>
	<path d="M314.733,511c-5.12,0-8.533-3.413-8.533-8.533v-34.133c0-5.12,3.413-8.533,8.533-8.533c5.12,0,8.533,3.413,8.533,8.533
		v34.133C323.267,507.587,319.853,511,314.733,511z"/>
	<path d="M357.4,511c-5.12,0-8.533-3.413-8.533-8.533v-34.133c0-5.12,3.413-8.533,8.533-8.533s8.533,3.413,8.533,8.533v34.133
		C365.933,507.587,362.52,511,357.4,511z"/>
	<path d="M400.067,511c-5.12,0-8.533-3.413-8.533-8.533v-34.133c0-5.12,3.413-8.533,8.533-8.533s8.533,3.413,8.533,8.533v34.133
		C408.6,507.587,405.187,511,400.067,511z"/>
	<path d="M442.733,511c-5.12,0-8.533-3.413-8.533-8.533v-34.133c0-5.12,3.413-8.533,8.533-8.533c5.12,0,8.533,3.413,8.533,8.533
		v34.133C451.267,507.587,447.853,511,442.733,511z"/>
	<path d="M485.4,511c-5.12,0-8.533-3.413-8.533-8.533v-34.133c0-5.12,3.413-8.533,8.533-8.533s8.533,3.413,8.533,8.533v34.133
		C493.933,507.587,490.52,511,485.4,511z"/>
</g>
<g>
</g>
<g>
</g>
<g>
</g>
<g>
</g>
<g>
</g>
<g>
</g>
<g>
</g>
<g>
</g>
<g>
</g>
<g>
</g>
<g>
</g>
<g>
</g>
<g>
</g>
<g>
</g>
<g>
</g>
</svg>
