<?xml version="1.0" encoding="iso-8859-1"?>
<!-- Generator: Adobe Illustrator 19.0.0, SVG Export Plug-In . SVG Version: 6.00 Build 0)  -->
<svg version="1.1" id="Layer_1" xmlns="http://www.w3.org/2000/svg" xmlns:xlink="http://www.w3.org/1999/xlink" x="0px" y="0px"
	 viewBox="0 0 392.631 392.631" style="enable-background:new 0 0 392.631 392.631;" xml:space="preserve">
<polygon style="fill:#FFFFFF;" points="47.828,204.218 23.78,350.125 368.863,350.125 344.814,204.218 "/>
<path style="fill:#56ACE0;" d="M270.212,144.808c0-5.042-3.038-9.568-7.434-11.378c-10.537-4.267-21.463-7.499-32.582-9.568
	l-22.238,37.818c-4.202,7.111-14.545,7.176-18.747,0.065l-22.626-37.818c-11.119,2.069-22.109,5.301-32.582,9.568
	c-4.396,1.745-7.434,6.4-7.434,11.378v37.495h143.709v-37.56H270.212z"/>
<path style="fill:#194F82;" d="M392.459,359.24l-25.6-155.022h14.739c6.659,0,11.895-6.012,10.731-12.8
	c-0.905-5.301-5.947-9.051-11.378-9.051h-88.954v-37.624c0-13.964-8.275-26.44-21.01-31.612c-14.352-5.818-29.414-9.891-44.8-12.154
	c-4.331-0.646-8.663,1.422-10.925,5.172L198.325,134.4l-16.937-28.251c-2.263-3.814-6.594-5.818-10.99-5.172
	c-15.321,2.263-30.384,6.271-44.735,12.154c-12.735,5.172-21.01,17.648-21.01,31.612v37.624H10.915
	c-6.594,0-11.83,5.818-10.731,12.671c0.84,5.43,5.818,9.18,11.313,9.18h14.222L0.249,359.305
	c-1.099,6.594,4.008,12.671,10.796,12.671h32.711v9.115c0,5.43,3.685,10.408,9.051,11.378c6.788,1.164,12.8-4.073,12.8-10.731
	v-9.762h261.56v9.115c0,5.43,3.685,10.408,9.051,11.378c6.788,1.164,12.8-4.073,12.8-10.731v-9.762h32.84
	C388.451,371.911,393.493,365.899,392.459,359.24z M23.78,350.125l24.048-145.907h296.986l23.984,145.907H23.78L23.78,350.125z
	 M126.439,144.808c0-5.042,3.038-9.568,7.434-11.378c10.537-4.267,21.463-7.499,32.582-9.568l22.562,37.818
	c4.267,7.111,14.545,7.111,18.747-0.065l22.238-37.818c11.119,2.069,22.109,5.301,32.582,9.568c4.396,1.745,7.434,6.4,7.434,11.378
	v37.624H126.374v-37.56H126.439z"/>
<path style="fill:#FFC10D;" d="M196.321,21.786c-11.055,0-20.04,8.986-20.04,20.04s8.986,20.04,20.04,20.04s20.04-8.986,20.04-20.04
	S207.376,21.786,196.321,21.786z"/>
<path style="fill:#194F82;" d="M196.321,0c-23.014,0-41.826,18.747-41.826,41.826s18.747,41.826,41.826,41.826
	s41.826-18.747,41.826-41.826S219.335,0,196.321,0z M196.321,61.802c-11.055,0-20.04-8.986-20.04-20.04s8.986-20.04,20.04-20.04
	s20.04,8.986,20.04,20.04C216.362,52.881,207.376,61.802,196.321,61.802z"/>
<path style="fill:#FFC10D;" d="M343.133,328.339l-16.808-102.335H66.317l-2.263,13.511h30.448c6.012,0,10.925,4.848,10.925,10.925
	c0,6.012-4.848,10.925-10.925,10.925H60.564l-3.556,21.786h8.663c6.012,0,10.925,4.848,10.925,10.925
	c0,6.012-4.848,10.925-10.925,10.925H53.388l-3.879,23.337H343.133L343.133,328.339L343.133,328.339z"/>
<g>
	<rect x="185.525" y="266.731" style="fill:#194F82;" width="21.721" height="52.558"/>
	<circle style="fill:#194F82;" cx="196.386" cy="247.725" r="12.735"/>
</g>
<g>
</g>
<g>
</g>
<g>
</g>
<g>
</g>
<g>
</g>
<g>
</g>
<g>
</g>
<g>
</g>
<g>
</g>
<g>
</g>
<g>
</g>
<g>
</g>
<g>
</g>
<g>
</g>
<g>
</g>
</svg>
