<?xml version="1.0" encoding="iso-8859-1"?>
<!-- Generator: Adobe Illustrator 19.0.0, SVG Export Plug-In . SVG Version: 6.00 Build 0)  -->
<svg version="1.1" id="Layer_1" xmlns="http://www.w3.org/2000/svg" xmlns:xlink="http://www.w3.org/1999/xlink" x="0px" y="0px"
	 viewBox="0 0 511.999 511.999" style="enable-background:new 0 0 511.999 511.999;" xml:space="preserve">
<path style="fill:#8AE9FF;" d="M60.149,460.214l165.23-185.168c9.683-10.851,9.683-27.24,0-38.092L60.149,51.787
	c-17.494-19.607-49.95-7.231-49.95,19.046v370.336C10.199,467.444,42.655,479.82,60.149,460.214z"/>
<path style="fill:#248A9C;" d="M38.934,480.018c-4.66,0-9.38-0.847-13.954-2.591C9.805,471.641,0,457.409,0,441.168V70.831
	c0-16.24,9.805-30.472,24.98-36.259c15.174-5.785,31.966-1.695,42.78,10.422l165.229,185.168c13.143,14.728,13.143,36.944,0,51.673
	L67.76,467.005C60.206,475.469,49.733,480.018,38.934,480.018z M39.017,52.39c-2.442,0-4.765,0.478-6.77,1.242
	c-5.728,2.185-11.848,7.849-11.848,17.199v370.336c0,9.349,6.12,15.015,11.849,17.199c5.73,2.184,14.068,2.034,20.292-4.945l0,0
	l165.229-185.168c6.234-6.986,6.234-17.524,0-24.509L52.54,58.577C48.493,54.042,43.552,52.39,39.017,52.39z"/>
<path style="fill:#8AE9FF;" d="M329.303,460.214l165.23-185.168c9.683-10.851,9.683-27.24,0-38.092L329.303,51.787
	c-17.495-19.606-49.95-7.231-49.95,19.046v370.336C279.354,467.444,311.808,479.82,329.303,460.214z"/>
<g>
	<path style="fill:#248A9C;" d="M308.088,480.018c-4.66,0-9.379-0.846-13.954-2.591c-15.174-5.786-24.98-20.018-24.98-36.259V70.831
		c0-16.24,9.804-30.472,24.979-36.259c15.174-5.787,31.967-1.695,42.779,10.422l165.23,185.168
		c13.144,14.728,13.144,36.944,0,51.673L336.912,467.005h0.001C329.36,475.469,318.886,480.018,308.088,480.018z M308.17,52.39
		c-2.442,0-4.765,0.478-6.77,1.242c-5.728,2.185-11.848,7.849-11.848,17.199v370.336c0,9.349,6.12,15.015,11.849,17.199
		c5.726,2.184,14.066,2.033,20.291-4.945c0.001,0,0.001,0,0.001,0l165.23-185.168c6.234-6.986,6.234-17.524,0-24.509L321.693,58.577
		C317.646,54.043,312.706,52.39,308.17,52.39z"/>
	<path style="fill:#248A9C;" d="M370.212,157.541c-2.806,0-5.598-1.15-7.614-3.409l-4.061-4.552
		c-3.751-4.203-3.383-10.65,0.819-14.4c4.205-3.752,10.651-3.382,14.4,0.819l4.061,4.552c3.751,4.203,3.383,10.65-0.819,14.4
		C375.054,156.687,372.628,157.541,370.212,157.541z"/>
	<path style="fill:#248A9C;" d="M465.379,264.191c-2.806,0-5.598-1.15-7.614-3.409l-70.204-78.677
		c-3.751-4.203-3.383-10.65,0.819-14.4c4.205-3.752,10.651-3.382,14.4,0.819l70.204,78.677c3.751,4.203,3.383,10.65-0.819,14.4
		C470.22,263.337,467.794,264.191,465.379,264.191z"/>
</g>
<g>
</g>
<g>
</g>
<g>
</g>
<g>
</g>
<g>
</g>
<g>
</g>
<g>
</g>
<g>
</g>
<g>
</g>
<g>
</g>
<g>
</g>
<g>
</g>
<g>
</g>
<g>
</g>
<g>
</g>
</svg>
